<svg width="720" height="1440" viewBox="0 0 720 1440" fill="none" xmlns="http://www.w3.org/2000/svg">
  <rect width="720" height="1440" rx="72" fill="#071626"/>
  <rect x="48" y="108" width="624" height="152" rx="34" fill="#0D243C" stroke="#1A5D80"/>
  <text x="92" y="176" fill="#9FDFFF" font-family="Arial" font-size="34" font-weight="700">Safer Path</text>
  <text x="92" y="220" fill="#7F9FBE" font-family="Arial" font-size="22">Guided route preview</text>
  <rect x="84" y="320" width="552" height="620" rx="42" fill="#0A1D30" stroke="#183D58"/>
  <path d="M160 764C202 706 248 674 292 612C332 556 376 508 430 454C474 410 518 394 568 392" stroke="#7AF0B2" stroke-width="14" stroke-linecap="round"/>
  <path d="M160 852C214 824 258 782 304 732C352 680 398 636 436 578" stroke="#35D5FF" stroke-opacity="0.32" stroke-width="10" stroke-linecap="round" stroke-dasharray="16 18"/>
  <circle cx="160" cy="764" r="16" fill="#7AF0B2"/>
  <circle cx="568" cy="392" r="16" fill="#8EE8FF"/>
  <rect x="120" y="988" width="480" height="132" rx="30" fill="#0D243C" stroke="#1D4D6E"/>
  <text x="160" y="1052" fill="#7AF0B2" font-family="Arial" font-size="26" font-weight="700">Recommended</text>
  <text x="160" y="1096" fill="#F4F8FC" font-family="Arial" font-size="34" font-weight="700">2 min longer • lower exposure</text>
</svg>
